<?xml version="1.0" encoding="UTF-8" standalone="no"?>
<!DOCTYPE svg PUBLIC "-//W3C//DTD SVG 1.1//EN" "http://www.w3.org/Graphics/SVG/1.1/DTD/svg11.dtd">
<svg width="100%" height="100%" viewBox="0 0 370 36" version="1.1" xmlns="http://www.w3.org/2000/svg" xmlns:xlink="http://www.w3.org/1999/xlink" xml:space="preserve" xmlns:serif="http://www.serif.com/" style="fill-rule:evenodd;clip-rule:evenodd;stroke-linejoin:round;stroke-miterlimit:2;">
    <g id="Artboard1" transform="matrix(1.14907,0,0,0.439024,9.19255,13.1707)">
        <rect x="-8" y="-30" width="322" height="82" style="fill:none;"/>
        <clipPath id="_clip1">
            <rect x="-8" y="-30" width="322" height="82"/>
        </clipPath>
        <g clip-path="url(#_clip1)">
            <g transform="matrix(1.07333,0,0,2.5625,-8,-30)">
                <clipPath id="_clip2">
                    <rect x="0" y="0" width="300" height="32"/>
                </clipPath>
                <g clip-path="url(#_clip2)">
                    <rect x="0" y="0" width="300" height="32"/>
                    <path d="M80.36,22.267C79.29,27.893 75.43,32 68.555,32C59.847,32 55.752,25.235 55.752,16.684C55.752,8.133 60.009,1.058 68.83,1.058C76.144,1.058 79.679,5.724 80.36,10.791L74.441,10.791C73.841,8.435 72.374,6.124 68.636,6.124C63.746,6.124 61.882,10.969 61.882,16.471C61.882,21.538 63.511,26.898 68.798,26.898C72.69,26.898 73.882,24.062 74.401,22.275L80.36,22.275L80.36,22.267Z" style="fill:white;fill-rule:nonzero;"/>
                    <path d="M110.643,16.418C110.643,24.8 106.07,32 97.168,32C88.265,32 84.049,25.147 84.049,16.507C84.049,7.867 89.019,1.058 97.525,1.058C105.552,1.058 110.643,7.209 110.643,16.418ZM90.171,16.373C90.171,22.267 92.514,26.72 97.362,26.72C102.649,26.72 104.514,21.875 104.514,16.507C104.514,10.791 102.365,6.338 97.281,6.338C92.198,6.338 90.162,10.524 90.162,16.373L90.171,16.373Z" style="fill:white;fill-rule:nonzero;"/>
                    <path d="M166.411,22.267C165.341,27.893 161.481,32 154.605,32C145.897,32 141.803,25.235 141.803,16.684C141.803,8.133 146.059,1.058 154.881,1.058C162.195,1.058 165.73,5.724 166.411,10.791L160.492,10.791C159.892,8.435 158.424,6.124 154.687,6.124C149.797,6.124 147.932,10.969 147.932,16.471C147.932,21.538 149.562,26.898 154.849,26.898C158.741,26.898 159.932,24.062 160.451,22.275L166.411,22.275L166.411,22.267Z" style="fill:white;fill-rule:nonzero;"/>
                    <path d="M171.455,1.493L177.374,1.493L177.374,13.191L188.425,13.191L188.425,1.493L194.344,1.493L194.344,31.564L188.425,31.564L188.425,18.56L177.374,18.56L177.374,31.564L171.455,31.564L171.455,1.493Z" style="fill:white;fill-rule:nonzero;"/>
                    <path d="M206.359,6.818L198.008,6.818L198.008,1.493L220.589,1.493L220.589,6.818L212.278,6.818L212.278,31.564L206.359,31.564L206.359,6.818Z" style="fill:white;fill-rule:nonzero;"/>
                    <path d="M243.122,18.604L230.003,18.604L230.003,26.24L244.468,26.24L243.755,31.564L224.238,31.564L224.238,1.493L243.673,1.493L243.673,6.818L230.003,6.818L230.003,13.235L243.122,13.235L243.122,18.604Z" style="fill:white;fill-rule:nonzero;"/>
                    <path d="M272.059,22.267C270.989,27.893 267.13,32 260.254,32C251.546,32 247.451,25.235 247.451,16.684C247.451,8.133 251.708,1.058 260.53,1.058C267.843,1.058 271.378,5.724 272.059,10.791L266.14,10.791C265.54,8.435 264.073,6.124 260.335,6.124C255.446,6.124 253.581,10.969 253.581,16.471C253.581,21.538 255.211,26.898 260.497,26.898C264.389,26.898 265.581,24.062 266.1,22.275L272.059,22.275L272.059,22.267Z" style="fill:white;fill-rule:nonzero;"/>
                    <path d="M277.104,1.493L283.022,1.493L283.022,13.191L294.074,13.191L294.074,1.493L299.993,1.493L299.993,31.564L294.074,31.564L294.074,18.56L283.022,18.56L283.022,31.564L277.104,31.564L277.104,1.493Z" style="fill:white;fill-rule:nonzero;"/>
                    <path d="M129.721,1.493L122.286,1.493L112.986,31.564L118.832,31.564C120.381,26.107 125.116,9.129 125.789,6.16L125.83,6.16C126.503,8.862 131.278,25.191 133.224,31.564L139.467,31.564L129.721,1.493Z" style="fill:white;fill-rule:nonzero;"/>
                    <path d="M50.296,0L18.05,0C9.998,0 2.069,7.164 0.342,16C-1.394,24.836 3.731,32 11.774,32L20.604,32C21.796,32 22.971,30.942 23.231,29.627L24.463,23.351C24.723,22.044 23.96,20.978 22.769,20.978L12.95,20.978C10.712,20.978 9.131,19.084 9.544,16.631C9.974,14.089 12.236,12.009 14.539,12.009L29.977,12.009C31.169,12.009 31.931,13.067 31.671,14.382L28.679,29.636C28.42,30.942 29.182,32.009 30.374,32.009L37.533,32.009C38.725,32.009 39.901,30.951 40.16,29.636L43.152,14.382C43.412,13.076 44.588,12.009 45.779,12.009C46.971,12.009 48.147,10.951 48.406,9.636L50.296,0Z" style="fill:white;fill-rule:nonzero;"/>
                </g>
            </g>
        </g>
    </g>
</svg>
